# xmcd
# 
# Track frame offsets:
#     150
#     38744
#     59493
#     76344
#     105533
#     123714
#     148541
#     168653
#     191063
#     210258
#     235933
#     260063
#     276965
#     298536
# 
# Disc length: 4311
# 
# Revision: 2
# Processed by: cddbd v1.5.2PL0 Copyright (c) Steve Scherf et al.
# Submitted via: fre:ac v1.0.31
# 
DISCID=d410d50e
DTITLE=Wolfgang Hohlbein - Mörderhotel
DYEAR=2015
DGENRE=Hörbuch
TTITLE0=01 Mörderhotel
TTITLE1=02 Mörderhotel
TTITLE2=03 Mörderhotel
TTITLE3=04 Mörderhotel
TTITLE4=05 Mörderhotel
TTITLE5=06 Mörderhotel
TTITLE6=07 Mörderhotel
TTITLE7=08 Mörderhotel
TTITLE8=09 Mörderhotel
TTITLE9=10 Mörderhotel
TTITLE10=11 Mörderhotel
TTITLE11=12 Mörderhotel
TTITLE12=13 Mörderhotel
TTITLE13=14 Mörderhotel
EXTD=
EXTT0=
EXTT1=
EXTT2=
EXTT3=
EXTT4=
EXTT5=
EXTT6=
EXTT7=
EXTT8=
EXTT9=
EXTT10=
EXTT11=
EXTT12=
EXTT13=
PLAYORDER=
